<svg id="Capa_1" enable-background="new 0 0 512 512" height="512" viewBox="0 0 512 512" width="512" xmlns="http://www.w3.org/2000/svg"><g id="XMLID_2346_"><g fill="#e67d97"><circle id="XMLID_2481_" cx="283" cy="37" r="27"/><circle id="XMLID_2467_" cx="229.127" cy="37" r="27"/><path id="XMLID_2361_" d="m442 318h-372c-22.091 0-40 17.909-40 40v144h452v-144c0-22.091-17.909-40-40-40z"/></g><path id="XMLID_2483_" d="m442 318h-372c-22.091 0-40 17.909-40 40v40.067l.905 1.873c24.863 24.863 65.174 24.863 90.038 0 24.863 24.863 65.174 24.863 90.038 0 24.863 24.863 65.175 24.863 90.038 0 24.863 24.863 65.175 24.863 90.038 0 24.863 24.863 65.174 24.863 90.038 0 0 0 .331.095.905.248v-42.188c0-22.091-17.909-40-40-40z" fill="#fff"/><path id="XMLID_2359_" d="m402.127 174h-292c-22.091 0-40 17.909-40 40v104h372v-104c0-22.091-17.909-40-40-40z" fill="#ec9eb1"/><path id="XMLID_2484_" d="m442 214c0-22.091-17.909-40-40-40h-292c-22.091 0-40 17.909-40 40v22.743c25.681 25.681 67.319 25.681 93 0 25.681 25.681 67.319 25.681 93 0 25.681 25.681 67.319 25.681 93 0 25.681 25.681 67.319 25.681 93 0z" fill="#fff"/><path id="XMLID_2358_" d="m388 173v-69c0-22.091-17.909-40-40-40h-184c-22.091 0-40 17.909-40 40v69z" fill="#ec9eb1"/><g id="XMLID_2050_"><g id="XMLID_2055_"><path id="XMLID_2062_" d="m502 492h-10v-134c0-24.147-17.205-44.348-40-48.994v-95.006c0-27.57-22.43-50-50-50h-4v-60c0-27.57-22.43-50-50-50h-32.153c2.647-5.094 4.153-10.873 4.153-17 0-20.402-16.598-37-37-37-10.61 0-20.184 4.495-26.936 11.673-6.753-7.178-16.327-11.673-26.937-11.673-20.402 0-37 16.598-37 37 0 6.127 1.506 11.906 4.153 17h-32.28c-27.57 0-50 22.43-50 50v60h-4c-27.57 0-50 22.43-50 50v95.006c-22.795 4.646-40 24.847-40 48.994v134h-10c-5.523 0-10 4.478-10 10s4.477 10 10 10h492c5.522 0 10-4.478 10-10s-4.478-10-10-10zm-422-235.348c11.056 6.097 23.525 9.353 36.5 9.353 17.063 0 33.266-5.604 46.505-15.94 27.242 21.207 65.753 21.203 92.995-.004 27.242 21.207 65.753 21.211 92.995.004 13.239 10.336 29.441 15.94 46.505 15.94 12.975 0 25.444-3.256 36.5-9.353v51.348h-352zm203-236.652c9.374 0 17 7.626 17 17s-7.626 17-17 17c-8.811 0-16.074-6.737-16.915-15.33.025-.554.043-1.11.043-1.67s-.018-1.116-.043-1.67c.841-8.593 8.104-15.33 16.915-15.33zm-70.873 17c0-9.374 7.626-17 17-17 8.811 0 16.073 6.737 16.915 15.33-.024.554-.042 1.11-.042 1.67s.018 1.116.042 1.67c-.842 8.593-8.104 15.33-16.915 15.33-9.374 0-17-7.626-17-17zm-102.127 147h101c5.522 0 10-4.477 10-10s-4.478-10-10-10h-77v-60c0-16.542 13.458-30 30-30h184c16.542 0 30 13.458 30 30v60h-77c-5.523 0-10 4.477-10 10s4.477 10 10 10h101c16.542 0 30 13.458 30 30v18.38c-10.135 8.805-22.943 13.625-36.5 13.625-14.895 0-28.897-5.801-39.429-16.333-3.906-3.904-10.236-3.904-14.143 0-21.74 21.742-57.117 21.742-78.857 0-3.906-3.904-10.236-3.904-14.143 0-21.74 21.742-57.117 21.742-78.857 0-3.906-3.904-10.236-3.904-14.143 0-10.532 10.532-24.534 16.333-39.429 16.333-13.557 0-26.365-4.82-36.5-13.625v-18.38c.001-16.542 13.459-30 30.001-30zm-40 144h372c16.542 0 30 13.458 30 30v36.789c-21.042 18.984-53.611 18.342-73.872-1.921-3.906-3.904-10.236-3.904-14.143 0-10.136 10.137-23.613 15.719-37.948 15.719-14.334 0-27.811-5.582-37.947-15.719-3.906-3.904-10.236-3.904-14.142 0-20.924 20.924-54.971 20.924-75.895 0-3.906-3.904-10.236-3.904-14.142 0-10.136 10.137-23.613 15.719-37.947 15.719-14.335 0-27.812-5.582-37.948-15.719-3.906-3.904-10.236-3.904-14.143 0-20.262 20.264-52.831 20.906-73.873 1.922v-36.79c0-16.542 13.458-30 30-30zm-30 164v-72.761c25.385 14.166 57.435 12.168 80.938-5.998 12.838 9.952 28.518 15.346 45.025 15.346s32.187-5.394 45.023-15.346c13.207 10.208 29.108 15.312 45.014 15.311 15.901-.001 31.81-5.106 45.014-15.311 12.838 9.952 28.517 15.346 45.024 15.346s32.186-5.394 45.024-15.346c23.503 18.165 55.552 20.163 80.938 5.998v72.761z"/><path id="XMLID_2060_" d="m256 184c2.63 0 5.21-1.07 7.069-2.931 1.861-1.859 2.931-4.439 2.931-7.069s-1.07-5.21-2.931-7.07c-1.859-1.86-4.439-2.93-7.069-2.93s-5.21 1.069-7.07 2.93c-1.86 1.86-2.93 4.44-2.93 7.07s1.069 5.21 2.93 7.069c1.86 1.861 4.44 2.931 7.07 2.931z"/></g></g></g></svg>