<svg id="Capa_1" enable-background="new 0 0 512 512" height="512" viewBox="0 0 512 512" width="512" xmlns="http://www.w3.org/2000/svg"><g id="XMLID_2219_"><g id="XMLID_1000_"><g id="XMLID_1001_"><path id="XMLID_1002_" d="m247.106 218v-107.702h-4.362c-12.233 0-22.149-9.916-22.149-22.149s9.916-22.149 22.149-22.149h26.511c12.233 0 22.149 9.916 22.149 22.149v129.851z" fill="#98eaf9"/></g></g><path id="XMLID_1809_" d="m450 502h-388c-28.719 0-52-23.281-52-52h492c0 28.719-23.281 52-52 52z" fill="#cbf4fb"/><g id="XMLID_1117_"><path id="XMLID_1881_" d="m440.721 218h-369.442c-22.798 0-41.279 18.481-41.279 41.279v190.721h452v-190.721c0-22.798-18.481-41.279-41.279-41.279z" fill="#ffcd69"/><path id="XMLID_1004_" d="m440.721 218h-369.443c-22.797 0-41.278 18.481-41.278 41.278v21.34h26.703c12.443 0 22.53 10.086 22.53 22.529v58.813c0 14.04 11.381 25.421 25.421 25.421s25.421-11.381 25.421-25.421v-50.61c0-13.58 11.008-24.588 24.588-24.588 13.58 0 24.588 11.008 24.588 24.588v26.182c0 15.718 12.863 28.96 28.577 28.663 15.234-.289 27.495-12.728 27.495-28.031v-7.78c0-14.046 10.923-26.009 24.96-26.507 14.737-.523 26.848 11.268 26.848 25.887v17.736c0 12.216 9.5 22.621 21.708 23.055 12.817.456 23.351-9.8 23.351-22.515v-31.106c0-13.075 10.6-23.675 23.675-23.675 13.075 0 23.675 10.6 23.675 23.675v22.552c0 15.717 12.863 28.96 28.577 28.662 15.234-.288 27.495-12.728 27.495-28.031v-37.122c0-12.359 10.019-22.378 22.379-22.378h24.009v-21.34c0-22.796-18.481-41.277-41.279-41.277z" fill="#c68a65"/></g><path id="XMLID_1103_" d="m272.402 59.206c-9.059 9.059-23.745 9.059-32.804 0-9.059-9.059-9.059-23.745 0-32.804l16.402-16.402 16.402 16.402c9.059 9.059 9.059 23.745 0 32.804z" fill="#ff9171"/><g id="XMLID_879_"><path id="XMLID_913_" d="m502 440h-10v-180.722c0-28.275-23.003-51.278-51.278-51.278h-16.722c-5.522 0-10 4.477-10 10s4.478 10 10 10h16.722c17.247 0 31.278 14.031 31.278 31.278v11.34h-14.01c-17.854 0-32.379 14.524-32.379 32.378v37.122c0 9.759-7.933 17.848-17.683 18.033-4.74.067-9.202-1.743-12.682-5.158-3.627-3.56-5.708-8.483-5.708-13.507v-22.552c0-18.568-15.107-33.675-33.675-33.675s-33.675 15.106-33.675 33.675v31.106c0 3.431-1.36 6.633-3.83 9.017-2.469 2.382-5.726 3.637-9.165 3.504-6.651-.236-12.063-6.096-12.063-13.06v-17.736c0-9.832-3.896-19.009-10.973-25.837-7.073-6.827-16.396-10.38-26.23-10.045-19.404.69-34.605 16.724-34.605 36.502v7.78c0 9.759-7.933 17.848-17.684 18.032-4.681.098-9.2-1.742-12.68-5.157-3.628-3.56-5.709-8.482-5.709-13.507v-26.183c0-19.072-15.516-34.588-34.588-34.588s-34.588 15.516-34.588 34.588v50.61c0 8.503-6.918 15.421-15.421 15.421-8.504 0-15.422-6.918-15.422-15.421v-58.813c0-17.937-14.593-32.529-32.529-32.529h-16.701v-11.34c0-17.247 14.031-31.278 31.278-31.278h262.722c5.522 0 10-4.477 10-10s-4.478-10-10-10h-32.596v-119.851c0-12.219-6.853-22.866-16.917-28.304 7.623-12.748 5.955-29.544-5.014-40.514l-16.402-16.402c-3.906-3.904-10.236-3.904-14.143 0l-16.402 16.402c-10.969 10.97-12.637 27.767-5.014 40.514-10.064 5.438-16.917 16.085-16.917 28.304 0 15.804 11.462 28.981 26.511 31.653v88.198h-165.828c-28.275 0-51.278 23.003-51.278 51.278v180.722h-10c-5.523 0-10 4.478-10 10 0 34.186 27.813 62 62 62h388c34.186 0 62-27.814 62-62 0-5.522-4.478-10-10-10zm-255.331-406.526 9.331-9.331 9.331 9.331c5.146 5.145 5.146 13.517 0 18.661-2.492 2.492-5.806 3.865-9.331 3.865s-6.839-1.373-9.331-3.865c-5.146-5.145-5.146-13.517 0-18.661zm.437 66.824h-4.361c-6.699 0-12.149-5.45-12.149-12.148 0-6.699 5.45-12.149 12.149-12.149h26.511c6.698 0 12.148 5.45 12.148 12.149v119.85h-24.298v-97.702c0-5.523-4.477-10-10-10zm-207.106 190.32h16.703c6.909 0 12.529 5.62 12.529 12.529v58.813c0 19.531 15.891 35.421 35.422 35.421s35.421-15.89 35.421-35.421v-50.61c0-8.044 6.544-14.588 14.588-14.588s14.588 6.544 14.588 14.588v26.183c0 10.359 4.265 20.485 11.701 27.782 7.344 7.207 16.927 11.056 27.066 10.878 20.569-.389 37.305-17.448 37.305-38.028v-7.78c0-8.806 6.87-16.214 15.314-16.514 4.371-.171 8.499 1.423 11.632 4.447 3.135 3.025 4.861 7.091 4.861 11.446v17.736c0 17.906 13.771 32.423 31.354 33.049 8.909.297 17.355-2.916 23.764-9.102 6.411-6.187 9.942-14.5 9.942-23.407v-31.106c0-7.54 6.135-13.675 13.675-13.675s13.675 6.135 13.675 13.675v22.552c0 10.359 4.265 20.485 11.7 27.782 7.345 7.206 16.925 11.082 27.067 10.879 20.57-.39 37.305-17.45 37.305-38.029v-37.122c0-6.825 5.553-12.378 12.379-12.378h14.009v149.382h-432zm410 201.382h-388c-19.714 0-36.3-13.652-40.797-32h469.594c-4.497 18.348-21.083 32-40.797 32z"/><path id="XMLID_917_" d="m128 108c5.523 0 10-4.478 10-10v-13.333c0-5.522-4.477-10-10-10-5.522 0-10 4.478-10 10v13.333c0 5.522 4.478 10 10 10z"/><path id="XMLID_918_" d="m128 174.667c5.523 0 10-4.478 10-10v-13.334c0-5.522-4.477-10-10-10-5.522 0-10 4.478-10 10v13.334c0 5.522 4.478 10 10 10z"/><path id="XMLID_948_" d="m154.667 134.667h13.333c5.523 0 10-4.478 10-10s-4.477-10-10-10h-13.333c-5.523 0-10 4.478-10 10s4.478 10 10 10z"/><path id="XMLID_950_" d="m88 134.667h13.333c5.522 0 10-4.478 10-10s-4.478-10-10-10h-13.333c-5.522 0-10 4.478-10 10s4.478 10 10 10z"/><path id="XMLID_958_" d="m384 33.333c5.522 0 10-4.478 10-10v-13.333c0-5.523-4.478-10-10-10s-10 4.477-10 10v13.333c0 5.522 4.478 10 10 10z"/><path id="XMLID_960_" d="m384 100c5.522 0 10-4.478 10-10v-13.333c0-5.522-4.478-10-10-10s-10 4.478-10 10v13.333c0 5.522 4.478 10 10 10z"/><path id="XMLID_991_" d="m410.667 60h13.333c5.522 0 10-4.478 10-10s-4.478-10-10-10h-13.333c-5.522 0-10 4.478-10 10s4.478 10 10 10z"/><path id="XMLID_1017_" d="m344 60h13.333c5.522 0 10-4.478 10-10s-4.478-10-10-10h-13.333c-5.522 0-10 4.478-10 10s4.478 10 10 10z"/><path id="XMLID_1031_" d="m379 228c2.63 0 5.21-1.07 7.069-2.931 1.861-1.859 2.931-4.439 2.931-7.069s-1.07-5.21-2.931-7.07c-1.859-1.86-4.439-2.93-7.069-2.93s-5.21 1.069-7.07 2.93c-1.86 1.86-2.93 4.44-2.93 7.07s1.069 5.21 2.93 7.069c1.86 1.861 4.44 2.931 7.07 2.931z"/></g></g></svg>