<svg id="Layer_3" enable-background="new 0 0 64 64" height="512" viewBox="0 0 64 64" width="512" xmlns="http://www.w3.org/2000/svg"><g><path d="m62 44.459c0 6.926-5.615 12.541-12.541 12.541h-34.918c-6.926 0-12.541-5.615-12.541-12.541 0-5.599 3.712-10.52 9.095-12.058l3.251-.929c5.741-1.64 11.683-2.472 17.654-2.472 5.971 0 11.913.832 17.654 2.472l3.251.929c5.383 1.539 9.095 6.459 9.095 12.058z" fill="#d8923e"/><g fill="#bc7f35"><path d="m13.973 31.579c-.084 3.323-.361 6.639-.832 9.931-.081.568-.567.99-1.141.99-.574 0-1.06-.422-1.141-.99-.414-2.899-.679-5.817-.793-8.742l-.008-.021c.338-.129.685-.245 1.038-.346z"/><path d="m24 29.5v1.429c0 4.042-.287 8.079-.859 12.081-.081.568-.567.99-1.141.99-.574 0-1.06-.422-1.141-.99-.572-4.002-.859-8.039-.859-12.081v-.799c1.327-.252 2.661-.462 4-.63z"/><path d="m34 29.031v3.898c0 4.042-.287 8.079-.859 12.081-.081.568-.567.99-1.141.99-.574 0-1.06-.422-1.141-.99-.572-4.002-.859-8.039-.859-12.081v-3.898c.666-.021 1.333-.031 2-.031.667 0 1.334.01 2 .031z"/><path d="m44 30.13v.799c0 4.042-.287 8.079-.859 12.081-.081.568-.567.99-1.141.99-.574 0-1.06-.422-1.141-.99-.572-4.002-.859-8.039-.859-12.081v-1.429c1.339.168 2.673.378 4 .63z"/><path d="m53.935 32.768c-.114 2.925-.379 5.843-.793 8.742-.082.568-.568.99-1.142.99-.574 0-1.06-.422-1.141-.99-.47-3.292-.748-6.608-.832-9.931l2.877.822c.336.096.666.205.989.327z"/></g><path d="m50.842 31.812 3.403-3.403c4.897-4.897 4.897-12.838 0-17.735-3.959-3.959-10.063-4.814-14.958-2.095l-2.955 1.642c-5.219 2.9-10.009 6.513-14.231 10.735-3.273 3.273-6.181 6.888-8.673 10.78l.919-.263c5.74-1.641 11.682-2.473 17.653-2.473 5.971 0 11.913.832 17.654 2.472z" fill="#8f6128"/><path d="m13.427 31.735.919-.263c1.836-.525 3.693-.967 5.564-1.325l.002.009c-.688-.739-1.39-1.466-2.105-2.181l-1.01-1.01c-1.194 1.538-2.319 3.129-3.37 4.77z" fill="#bc7f35"/><path d="m27.742 29.142c-1.471-1.282-2.897-2.614-4.278-3.994l-2.756-2.756c.456-.486.92-.965 1.392-1.436.472-.472.951-.936 1.436-1.392l2.756 2.756c2.121 2.121 4.128 4.351 6.013 6.682-.101-.002-.203-.002-.305-.002-1.422 0-2.842.047-4.258.142z" fill="#bc7f35"/><path d="m31.385 13.269.565.565c2.858 2.858 5.51 5.916 7.936 9.15.344.459.299 1.101-.107 1.507-.406.406-1.048.451-1.507.107-3.234-2.425-6.291-5.077-9.15-7.936l-1.01-1.01c1.065-.829 2.157-1.623 3.273-2.383z" fill="#bc7f35"/><path d="m40.275 8.109c1.987 2.149 3.863 4.399 5.62 6.742.344.459.299 1.101-.107 1.507-.406.406-1.048.451-1.507.107-2.66-1.995-5.201-4.144-7.61-6.434l2.616-1.453c.321-.179.648-.342.979-.489z" fill="#bc7f35"/></g></svg>