<svg id="Capa_1" enable-background="new 0 0 511.986 511.986" height="512" viewBox="0 0 511.986 511.986" width="512" xmlns="http://www.w3.org/2000/svg"><g><g><path d="m401.491 40.341c-11.087 2.413-22.119 5.096-33.097 8.048-14.586 3.923-23.905 18.077-21.985 33.059 3.231 25.223 8.248 50.086 15.05 74.588 4.041 14.554 18.118 23.987 33.084 21.947 29.605-4.036 58.835-9.934 87.689-17.694 14.586-3.923 23.905-18.077 21.985-33.059-.834-6.509-1.786-12.994-2.858-19.455-7.772-46.865-53.449-77.538-99.868-67.434z" fill="#e7a561"/><path d="m500.939 105.412c.147.784.285 1.57.424 2.366 1.069 6.464 2.024 12.951 2.855 19.452 1.921 14.984-7.393 29.141-21.985 33.059-28.856 7.76-58.078 13.656-87.685 17.693-14.969 2.046-29.045-7.391-33.084-21.948-1.982-7.115-3.798-14.263-5.471-21.44 6.985 5.441 16.018 8.136 25.373 6.859 33.389-4.553 66.354-11.205 98.896-19.955 9.075-2.441 16.352-8.395 20.677-16.086z" fill="#e49542"/><path d="m175.762 133.487c-5.875-19.192 1.382-40.397 18.508-51.939 37.865-25.518 77.192-48.541 117.978-69.069 20.695-10.416 45.923-4.06 59.036 15.04 22.181 32.307 41.929 66.039 59.244 101.195 10.236 20.784 3.429 45.895-15.783 58.842-37.865 25.518-77.192 48.541-117.978 69.069-18.448 9.285-40.491 5.232-54.351-9.285" fill="#e7a561"/><path d="m242.417 247.335c13.859 14.514 35.906 18.568 54.353 9.288 40.785-20.533 80.112-43.557 117.981-69.071 19.207-12.946 26.012-38.063 15.778-58.845-3.536-7.183-7.181-14.301-10.917-21.368-5.723 6.341-13.977 13.095-23.841 19.174-41.944 25.844-84.449 50.728-127.516 74.653-19.479 10.82-38.174 15.211-46.296 11.224" fill="#e49542"/><path d="m40.31 401.522c2.413-11.087 5.096-22.119 8.048-33.097 3.923-14.586 18.077-23.905 33.059-21.985 25.223 3.231 50.086 8.248 74.588 15.05 14.554 4.041 23.987 18.118 21.947 33.084-4.036 29.605-9.934 58.835-17.694 87.689-3.923 14.586-18.077 23.905-33.059 21.985-6.509-.834-12.994-1.786-19.455-2.858-46.865-7.772-77.538-53.449-67.434-99.868z" fill="#e7a561"/><path d="m105.381 500.97c.784.147 1.57.285 2.366.424 6.464 1.069 12.951 2.024 19.452 2.855 14.984 1.921 29.141-7.393 33.059-21.985 7.76-28.856 13.656-58.078 17.693-87.685 2.046-14.969-7.391-29.045-21.948-33.084-7.115-1.982-14.263-3.798-21.44-5.471 5.441 6.985 8.136 16.018 6.859 25.373-4.553 33.389-11.205 66.354-19.955 98.896-2.441 9.076-8.395 16.352-16.086 20.677z" fill="#e49542"/><path d="m133.456 175.794c-19.192-5.875-40.397 1.382-51.939 18.508-25.518 37.865-48.541 77.192-69.069 117.978-10.416 20.695-4.06 45.923 15.04 59.036 32.307 22.181 66.039 41.929 101.195 59.244 20.784 10.236 45.895 3.429 58.842-15.783 25.518-37.865 48.541-77.192 69.069-117.978 9.285-18.448 5.232-40.491-9.285-54.351" fill="#e7a561"/><path d="m247.304 242.449c14.514 13.859 18.568 35.906 9.288 54.353-20.533 40.785-43.557 80.112-69.071 117.981-12.946 19.207-38.063 26.012-58.845 15.778-7.183-3.536-14.301-7.181-21.368-10.917 6.341-5.723 13.095-13.977 19.174-23.841 25.844-41.944 50.728-84.449 74.653-127.516 10.82-19.479 15.211-38.174 11.224-46.296" fill="#e49542"/><path d="m175.16 54.903c-42.64 37.552-82.736 77.648-120.288 120.288-19.053 21.635-19.343 54.007-.478 75.806 31.911 36.873 66.303 71.266 103.176 103.176 21.799 18.865 54.171 18.576 75.806-.478 42.64-37.552 82.736-77.648 120.288-120.288 19.053-21.635 19.343-54.007.478-75.806-31.911-36.873-66.303-71.266-103.176-103.176-21.799-18.865-54.172-18.576-75.806.478z" fill="#e7a561"/><path d="m337.171 138.503c5.743 6.277 11.389 12.65 16.976 19.098 18.861 21.799 18.571 54.171-.482 75.806-37.551 42.641-77.646 82.736-120.287 120.287-21.635 19.054-54.007 19.343-75.806.482-6.448-5.587-12.821-11.233-19.098-16.976 11.686-3.821 25.932-12.858 39.428-25.672 45.683-43.383 90.215-87.915 133.605-133.605 12.805-13.488 21.842-27.734 25.664-39.42z" fill="#e49542"/></g><g><path d="m511.649 126.279c-.849-6.62-1.826-13.258-2.903-19.72-4.079-24.6-17.724-45.88-38.422-59.921-20.832-14.132-45.847-18.965-70.432-13.615-4.531.985-9.14 2.056-13.753 3.16-2.851-4.328-5.739-8.628-8.668-12.893-1.236-1.802-2.613-3.563-4.095-5.234-2.748-3.099-7.489-3.385-10.586-.637-3.099 2.747-3.386 7.487-.638 10.587 1.07 1.207 2.061 2.474 2.949 3.769 21.902 31.906 41.649 65.636 58.691 100.253 8.509 17.292 2.812 38.494-13.252 49.317-11.713 7.895-23.648 15.591-35.646 23.004 2.544-18.109-2.472-37.077-15.088-51.652-31.405-36.286-65.69-70.651-101.927-102.19 18.915-11.011 38.291-21.525 57.743-31.318 7.77-3.914 16.393-5.112 24.944-3.464 4.069.79 8.001-1.877 8.784-5.944.784-4.067-1.877-8-5.944-8.784-11.83-2.283-23.772-.624-34.531 4.795-21.706 10.928-43.316 22.744-64.315 35.142-23.541-12.816-53.5-10.011-74.355 8.347-42.672 37.588-83.367 78.283-120.957 120.958-18.356 20.852-21.161 50.809-8.347 74.35-12.403 21.004-24.219 42.617-35.139 64.32-12.063 23.966-4.545 53.453 17.491 68.591 4.267 2.929 8.568 5.818 12.898 8.671-1.105 4.616-2.176 9.225-3.16 13.751-5.352 24.59-.517 49.603 13.615 70.434 14.042 20.698 35.322 34.343 59.914 38.42 6.47 1.08 13.109 2.057 19.73 2.905 1.61.206 3.212.306 4.801.306 16.832 0 32.023-11.288 36.45-27.783 4.499-16.722 8.41-33.759 11.656-50.694 5.627-3.779 10.618-8.653 14.59-14.55 11.291-16.749 22.2-33.964 32.46-51.198 4.28-2.304 8.357-5.114 12.132-8.437 42.67-37.586 83.365-78.282 120.958-120.958 3.325-3.777 6.137-7.854 8.442-12.136 17.212-10.244 34.424-21.15 51.185-32.448 5.899-3.974 10.776-8.967 14.556-14.596 16.936-3.246 33.973-7.157 50.689-11.655 18.054-4.846 29.869-22.58 27.48-41.253zm-358.636 354.031c-2.91 10.844-13.6 17.937-24.86 16.491-6.433-.823-12.881-1.773-19.174-2.823-20.506-3.4-38.249-14.78-49.962-32.045-11.802-17.397-15.841-38.288-11.37-58.825.597-2.746 1.227-5.529 1.872-8.319 24.525 15.485 49.934 29.728 75.857 42.497 7.509 3.696 15.546 5.463 23.508 5.462 4.558 0 9.087-.593 13.481-1.721-2.73 13.151-5.862 26.313-9.352 39.283zm75.412-132.243c-18.779 16.53-47.128 16.715-65.945.427-21.863-18.916-43.114-38.978-63.163-59.63-2.885-2.973-7.633-3.041-10.605-.157-2.972 2.885-3.042 7.633-.157 10.605 20.351 20.962 41.921 41.326 64.11 60.524 12.125 10.496 27.288 15.734 42.47 15.734 3.07 0 6.139-.224 9.185-.652-7.421 12.011-15.12 23.95-23.013 35.658-10.823 16.063-32.021 21.76-49.305 13.253-34.661-17.073-68.393-36.821-100.259-58.695-15.882-10.911-21.292-32.184-12.583-49.484 9.785-19.447 20.297-38.824 31.311-57.742 5.896 6.775 11.89 13.487 17.853 19.975 2.804 3.051 7.548 3.25 10.597.447 3.05-2.803 3.249-7.548.447-10.597-6.451-7.018-12.944-14.3-19.3-21.641-16.28-18.818-16.092-47.168.436-65.943 37.171-42.199 77.416-82.443 119.613-119.613 18.777-16.529 47.127-16.718 65.943-.439 36.435 31.543 70.889 66 102.404 102.414 16.286 18.815 16.103 47.164-.427 65.941-37.174 42.203-77.417 82.447-119.612 119.615zm251.85-195.021c-12.966 3.488-26.127 6.62-39.278 9.351 3.096-12.067 2.064-25.185-3.748-36.994-12.75-25.9-26.992-51.308-42.491-75.852 2.789-.645 5.572-1.275 8.32-1.872 20.536-4.472 41.426-.432 58.824 11.371 17.264 11.712 28.645 29.456 32.047 49.969 1.048 6.284 1.997 12.733 2.821 19.166 1.442 11.262-5.647 21.95-16.495 24.861z"/><path d="m237.44 88.716c-4.14.112-7.406 3.559-7.294 7.699l.015.56c.11 4.072 3.445 7.297 7.493 7.297.069 0 .138-.001.207-.003 4.14-.112 7.406-3.559 7.294-7.699l-.015-.56c-.112-4.141-3.583-7.42-7.7-7.294z"/><path d="m232.085 73.057c-.108-4.141-3.581-7.385-7.693-7.301-4.14.108-7.409 3.553-7.301 7.693l.015.561c.106 4.074 3.442 7.304 7.493 7.304.066 0 .133-.001.2-.002 4.14-.108 7.409-3.553 7.301-7.693z"/><path d="m210.97 89.426c-4.14.108-7.409 3.553-7.301 7.693l.015.561c.106 4.074 3.442 7.304 7.493 7.304.066 0 .133-.001.2-.002 4.14-.108 7.409-3.553 7.301-7.693l-.015-.561c-.108-4.142-3.571-7.41-7.693-7.302z"/><path d="m179.421 281.071c-2.982-2.874-7.729-2.786-10.605.196-2.874 2.982-2.787 7.73.196 10.605l.404.389c1.456 1.402 3.33 2.1 5.203 2.1 1.966 0 3.929-.768 5.401-2.295 2.874-2.983 2.786-7.73-.196-10.605z"/><path d="m154.613 284.848c2.874-2.983 2.787-7.73-.196-10.605l-.404-.389c-2.983-2.874-7.73-2.787-10.605.196-2.874 2.982-2.786 7.73.196 10.605l.404.389c1.456 1.402 3.33 2.1 5.203 2.1 1.967 0 3.93-.768 5.402-2.296z"/><path d="m161.043 300.145c-2.981-2.877-7.729-2.792-10.604.189-2.876 2.98-2.791 7.728.189 10.604l.403.389c1.456 1.405 3.332 2.103 5.206 2.103 1.964 0 3.927-.767 5.398-2.292 2.876-2.98 2.791-7.728-.189-10.604z"/></g></g></svg>