<svg id="Layer_3" enable-background="new 0 0 64 64" height="512" viewBox="0 0 64 64" width="512" xmlns="http://www.w3.org/2000/svg"><g><path d="m56 54h-48c-3.314 0-6-2.686-6-6 0-1.105.895-2 2-2h56c1.105 0 2 .895 2 2 0 3.314-2.686 6-6 6z" fill="#c1c8d1"/><path d="m2.347 50h59.308l.003.001c-.824 2.33-3.046 3.999-5.658 3.999h-48c-2.612 0-4.834-1.669-5.658-3.998z" fill="#758190"/><g><path d="m50.554 17.831-1.109-1.665c1.6-1.065 2.554-2.85 2.554-4.773v-.394h2v.394c-.001 2.593-1.288 5.001-3.445 6.438z" fill="#c66b60"/></g><path d="m9 32h46v14h-46z" fill="#fadfb2"/><path d="m9 42h46v4h-46z" fill="#c18e59"/><path d="m55 36-1.586 1.586c-.905.905-2.133 1.414-3.414 1.414-1.281 0-2.509-.509-3.414-1.414l-.172-.172c-.905-.905-2.133-1.414-3.414-1.414-1.281 0-2.509.509-3.414 1.414l-.172.172c-.905.905-2.133 1.414-3.414 1.414-1.281 0-2.509-.509-3.414-1.414l-.172-.172c-.905-.905-2.133-1.414-3.414-1.414-1.281 0-2.509.509-3.414 1.414l-.172.172c-.905.905-2.133 1.414-3.414 1.414-1.281 0-2.509-.509-3.414-1.414l-.172-.172c-.905-.905-2.133-1.414-3.414-1.414h-.391c-1.045 0-2.061.339-2.897.966l-2.712 2.034v-7h46z" fill="#f5cf88"/><path d="m55 32v-1.125c0-3.762-1.494-7.37-4.154-10.03-1.822-1.821-4.294-2.845-6.87-2.845-1.304 0-2.594.262-3.794.772l-31.182 13.228" fill="#c66b60"/><circle cx="50" cy="20" fill="#e47c6e" r="4"/><circle cx="42" cy="23" fill="#db9b7c" r="2"/><g><path d="m48.999 29.998c-1.104 0-2-.896-2-1.999 0-1.104.896-2 2-2 1.103 0 1.999.896 1.999 2 0 1.103-.896 1.999-1.999 1.999z" fill="#db9b7c"/></g><g><path d="m32.445 29.831-1.752-1.167c-1.307-.871-3.083-.869-4.388 0l-1.752 1.167-1.108-1.665 1.751-1.167c1.965-1.31 4.644-1.308 6.606 0l1.751 1.167z" fill="#efbe9a"/></g><g><path d="m40.5 29.998c-1.181 0-2.323-.346-3.305-.999l-1.751-1.169 1.11-1.663 1.751 1.168c1.305.869 3.086.868 4.387-.001l1.752-1.168 1.11 1.665-1.752 1.168c-.981.653-2.123.999-3.302.999z" fill="#efbe9a"/></g></g></svg>