<?xml version="1.0" encoding="iso-8859-1"?>
<!-- Generator: Adobe Illustrator 19.0.0, SVG Export Plug-In . SVG Version: 6.00 Build 0)  -->
<svg version="1.1" id="Layer_1" xmlns="http://www.w3.org/2000/svg" xmlns:xlink="http://www.w3.org/1999/xlink" x="0px" y="0px"
	 viewBox="0 0 512 512" style="enable-background:new 0 0 512 512;" xml:space="preserve">
<path style="fill:#F7AFD4;" d="M500.001,219.638c-1.62-11.16-3.992-22.079-7.053-32.705C463.002,82.62,366.881,6.311,252.946,6.311
	C115.04,6.311,3.246,118.094,3.246,256c0,76.622,34.513,145.189,88.848,190.986c1.181,1.003,2.372,1.985,3.574,2.957
	c42.935,34.858,97.667,55.745,157.278,55.745c137.895,0,249.689-111.783,249.689-249.689
	C502.635,243.649,501.736,231.508,500.001,219.638z M341.907,292.781c-3.798,11.677-10.29,21.782-19.476,30.314
	c-8.532,9.185-18.636,15.677-30.313,19.476c-11.225,5.897-23.322,8.602-36.289,8.113c-25.521,0-48.174-10.671-66.603-27.587
	c-18.495-16.978-26.497-42.243-27.587-66.603c-0.489-12.968,2.215-25.065,8.112-36.289c3.798-11.677,10.29-21.782,19.476-30.314
	c8.532-9.185,18.636-15.677,30.312-19.476c11.225-5.897,23.321-8.602,36.289-8.113c25.521,0,48.174,10.671,66.603,27.587
	c18.495,16.977,26.497,42.243,27.587,66.603C350.508,269.46,347.804,281.557,341.907,292.781z"/>
<path style="fill:#F58FBF;" d="M500.001,219.638l-7.053-32.705C452.375,112.703,373.59,62.37,283.039,62.37
	c-132.033,0-239.073,107.039-239.073,239.083c0,53.467,17.554,102.839,47.219,142.66c1.463,1.964,2.957,3.908,4.483,5.831
	c42.935,34.858,97.667,55.745,157.278,55.745c137.895,0,249.689-111.783,249.689-249.689
	C502.635,243.649,501.736,231.508,500.001,219.638z M341.907,292.781c-3.798,11.677-10.29,21.782-19.476,30.314
	c-8.532,9.185-18.636,15.677-30.313,19.476c-11.225,5.897-23.322,8.602-36.289,8.113c-25.521,0-48.174-10.671-66.603-27.587
	c-18.495-16.978-26.497-42.243-27.587-66.603c-0.489-12.968,2.215-25.065,8.112-36.289c3.798-11.677,10.29-21.782,19.476-30.314
	c8.532-9.185,18.636-15.677,30.312-19.476c11.225-5.897,23.321-8.602,36.289-8.113c25.521,0,48.174,10.671,66.603,27.587
	c18.495,16.977,26.497,42.243,27.587,66.603C350.508,269.46,347.804,281.557,341.907,292.781z"/>
<path style="fill:#EF72AC;" d="M500.001,219.638c-43.572-52.099-108.847-85.211-181.812-85.211
	c-131.187,0-237.537,107.039-237.537,239.073c0,24.586,3.688,48.295,10.533,70.614c0.293,0.961,0.596,1.923,0.909,2.873
	c1.181,1.003,2.372,1.985,3.574,2.957c42.935,34.858,97.667,55.745,157.278,55.745c137.895,0,249.689-111.783,249.689-249.689
	C502.635,243.649,501.736,231.508,500.001,219.638z M341.907,292.781c-3.798,11.677-10.29,21.782-19.476,30.314
	c-8.532,9.185-18.636,15.677-30.313,19.476c-11.225,5.897-23.322,8.602-36.289,8.113c-25.521,0-48.174-10.671-66.603-27.587
	c-18.495-16.978-26.497-42.243-27.587-66.603c-0.489-12.968,2.215-25.065,8.112-36.289c3.798-11.677,10.29-21.782,19.476-30.314
	c8.532-9.185,18.636-15.677,30.312-19.476c11.225-5.897,23.321-8.602,36.289-8.113c25.521,0,48.174,10.671,66.603,27.587
	c18.495,16.977,26.497,42.243,27.587,66.603C350.508,269.46,347.804,281.557,341.907,292.781z"/>
<path style="fill:#FEC377;" d="M255.997,499.461c-47.687,0-93.903-13.851-133.654-40.056c-13.641-8.985-26.468-19.43-38.124-31.044
	l3.189-5.199c1.374,0.45,2.545,0.801,3.675,1.103l0.124,0.027c4.869,1.16,9.259,1.719,13.47,1.719
	c7.521,0,13.062-1.807,18.421-3.555c5.03-1.638,9.738-3.172,16.148-3.172c2.837,0,5.795,0.299,9.043,0.913l0.11,0.017
	c11.493,1.865,16.86,5.924,22.543,10.22c6.785,5.148,13.738,10.426,29.288,11.859l0.141,0.007c1.636,0.109,3.222,0.163,4.751,0.163
	c12.383,0,19.342-3.426,26.072-6.74c6.274-3.086,12.195-5.999,23.19-5.999c0.404,0,0.815,0.004,1.234,0.011l0.646-0.002
	c11.295,0,17.181,2.84,23.414,5.847l0.095,0.045c6.502,3.152,13.22,6.408,25.215,6.408c1.777,0,3.649-0.074,5.563-0.22l0.103-0.013
	c15.295-1.57,22.356-6.378,29.184-11.029c5.914-4.02,11.482-7.805,23.227-9.56l0.17-0.027c3.598-0.636,6.886-0.951,9.998-0.951
	c5.839,0,10.192,1.103,14.802,2.272c4.711,1.194,9.579,2.429,15.98,2.429c0.001,0,0.001,0,0.002,0c4.775,0,9.83-0.685,15.455-2.096
	l0.16-0.043c2.72-0.755,5.331-1.629,7.726-2.586l3.416,5.091c-12.487,12.9-26.429,24.442-41.439,34.305
	C349.659,485.679,303.552,499.461,255.997,499.461z"/>
<g>
	<polygon style="fill:#FEDAAA;" points="453.216,212.33 461.053,212.33 468.89,212.33 468.89,227.692 453.216,227.692 	"/>
	<rect x="423.309" y="358.097" style="fill:#FEDAAA;" width="15.673" height="15.362"/>
	<polygon style="fill:#FEDAAA;" points="161.777,358.974 146.104,358.974 146.104,343.612 153.941,343.612 161.777,343.612 	"/>
	<polygon style="fill:#FEDAAA;" points="324.486,389.961 316.649,389.961 308.812,389.961 308.812,374.599 324.486,374.599 	"/>
	<polygon style="fill:#FEDAAA;" points="308.812,125.959 308.812,110.597 324.486,110.597 324.486,125.959 316.649,125.959 	"/>
	<polygon style="fill:#FEDAAA;" points="389.479,316.811 381.643,316.811 373.806,316.811 373.806,301.449 389.479,301.449 	"/>
	<polygon style="fill:#FEDAAA;" points="389.479,220.011 373.806,220.011 373.806,204.648 381.643,204.648 389.479,204.648 	"/>
	<polygon style="fill:#FEDAAA;" points="410.929,122.109 403.092,122.109 395.256,122.109 395.256,106.747 410.929,106.747 	"/>
	<polygon style="fill:#FEDAAA;" points="245.105,56.386 260.778,56.386 260.778,71.748 252.942,71.748 245.105,71.748 	"/>
	<polygon style="fill:#FEDAAA;" points="179.655,131.718 195.328,131.718 195.328,147.08 187.491,147.08 179.655,147.08 	"/>
	<polygon style="fill:#FEDAAA;" points="145.004,64.067 160.677,64.067 160.677,79.43 152.84,79.43 145.004,79.43 	"/>
	<polygon style="fill:#FEDAAA;" points="116.404,248.319 124.24,248.319 132.077,248.319 132.077,263.681 116.404,263.681 	"/>
	<polygon style="fill:#FEDAAA;" points="80.654,166.369 88.49,166.369 96.327,166.369 96.327,181.731 80.654,181.731 	"/>
	<polygon style="fill:#FEDAAA;" points="62.776,324.492 54.941,324.492 47.103,324.492 47.103,309.13 62.776,309.13 	"/>
	<path style="fill:#FEDAAA;" d="M387.612,456.986c-37.825,24.858-83.059,39.34-131.615,39.34c-48.682,0-94.03-14.555-131.929-39.539
		c0.01-0.01,0.01-0.01,0.021-0.01c6.896-2.247,12.842-4.19,23.615-2.152l0.199,0.031c10.752,1.745,15.59,5.423,21.201,9.665
		c6.76,5.13,14.43,10.94,30.898,12.445l0.199,0.01c1.724,0.115,3.365,0.167,4.921,0.167c13.113,0,20.689-3.73,27.46-7.064
		c6.416-3.156,11.975-5.872,22.977-5.663h0.199c10.971-0.084,16.374,2.55,22.653,5.58c7.502,3.636,16.018,7.743,32.381,6.489
		l0.199-0.021c16.071-1.651,23.803-6.917,30.616-11.557c5.841-3.971,10.877-7.398,21.922-9.049l0.199-0.031
		c10.93-1.933,16.781-0.449,23.542,1.264C387.382,456.923,387.497,456.955,387.612,456.986z"/>
</g>
<path d="M256,512c68.379,0,132.668-26.628,181.019-74.981S512,324.38,512,256s-26.628-132.668-74.981-181.019S324.379,0,256,0
	C187.62,0,123.332,26.628,74.981,74.981S0,187.62,0,256s26.628,132.668,74.981,181.019S187.62,512,256,512z M256,496.327
	c-66.113,0-126.073-26.838-169.567-70.187c1.242,0.408,2.526,0.802,3.902,1.167l0.195,0.049c15.995,3.806,25.327,0.762,33.56-1.925
	c6.892-2.249,12.844-4.19,23.618-2.154l0.2,0.036c10.75,1.746,15.591,5.416,21.195,9.663c6.766,5.128,14.434,10.942,30.897,12.44
	l0.2,0.016c1.725,0.113,3.364,0.166,4.925,0.166c13.109-0.001,20.69-3.729,27.461-7.061c6.409-3.154,11.967-5.871,22.972-5.668
	l0.1,0.002h0.101c10.975-0.078,16.376,2.547,22.65,5.583c7.506,3.63,16.018,7.741,32.385,6.483l0.2-0.019
	c16.066-1.653,23.797-6.913,30.619-11.554c5.833-3.969,10.87-7.397,21.918-9.053l0.199-0.032
	c10.932-1.928,16.778-0.447,23.546,1.268c7.99,2.026,17.051,4.322,32.961,0.333l0.195-0.051c3.011-0.838,5.685-1.745,8.096-2.701
	C384.812,468.237,323.629,496.327,256,496.327z M51.622,382.294C28.846,345.571,15.673,302.298,15.673,256
	c0-132.516,107.81-240.327,240.327-240.327S496.327,123.484,496.327,256c0,47.308-13.748,91.462-37.447,128.692
	c-10.341,4.231-15.805,9.182-20.694,13.623c-5.351,4.862-9.975,9.062-21.858,12.384c-12.014,2.996-17.837,1.52-25.204-0.347
	c-7.424-1.882-15.836-4.012-30.02-1.528c-14.517,2.195-21.844,7.181-28.31,11.581c-6.034,4.106-11.251,7.655-23.306,8.912
	c-12.085,0.915-17.458-1.684-24.254-4.973c-7.004-3.389-14.984-7.205-29.48-7.148c-14.785-0.257-22.906,3.744-30.088,7.277
	c-6.915,3.401-12.384,6.087-24.345,5.326c-11.919-1.102-16.702-4.726-22.752-9.312c-6.336-4.803-13.517-10.245-28.045-12.626
	c-14.669-2.754-23.501,0.129-31.297,2.672c-7.447,2.428-13.333,4.351-24.971,1.601c-11.53-3.078-15.594-7.639-20.734-13.408
	C68.606,393.207,63.079,387.031,51.622,382.294z"/>
<g>
	<path style="fill:#FFFFFF;" d="M395.752,82.824c-26.057-21.595-57.122-37.256-89.842-45.289l-3.738,15.221
		c30.434,7.472,59.336,22.042,83.578,42.134L395.752,82.824z"/>
	<path style="fill:#FFFFFF;" d="M450.539,326.688l14.759,5.278c6.071-16.979,10.084-34.713,11.93-52.71l-15.592-1.598
		C459.919,294.401,456.186,310.898,450.539,326.688z"/>
</g>
<path d="M256,152.871c-56.866,0-103.129,46.264-103.129,103.129S199.133,359.129,256,359.129S359.129,312.865,359.129,256
	S312.866,152.871,256,152.871z M256,343.456c-48.223,0-87.456-39.233-87.456-87.456s39.233-87.456,87.456-87.456
	s87.456,39.233,87.456,87.456S304.223,343.456,256,343.456z"/>
<g>
	<polygon style="fill:#554432;" points="324.486,110.597 308.812,110.597 308.812,125.959 316.649,125.959 324.486,125.959 	"/>
	<polygon style="fill:#554432;" points="260.778,71.748 260.778,56.386 245.105,56.386 245.105,71.748 252.942,71.748 	"/>
	<polygon style="fill:#554432;" points="395.256,122.109 403.092,122.109 410.929,122.109 410.929,106.747 395.256,106.747 	"/>
	<polygon style="fill:#554432;" points="468.89,212.33 461.053,212.33 453.216,212.33 453.216,227.692 468.89,227.692 	"/>
	<polygon style="fill:#554432;" points="373.806,316.811 381.643,316.811 389.479,316.811 389.479,301.449 373.806,301.449 	"/>
	<polygon style="fill:#554432;" points="146.104,343.612 146.104,358.974 161.777,358.974 161.777,343.612 153.941,343.612 	"/>
	<polygon style="fill:#554432;" points="47.103,324.492 54.941,324.492 62.776,324.492 62.776,309.13 47.103,309.13 	"/>
	<polygon style="fill:#554432;" points="132.077,248.319 124.24,248.319 116.404,248.319 116.404,263.681 132.077,263.681 	"/>
	<polygon style="fill:#554432;" points="96.327,166.369 88.49,166.369 80.654,166.369 80.654,181.731 96.327,181.731 	"/>
	<polygon style="fill:#554432;" points="195.328,147.08 195.328,131.718 179.655,131.718 179.655,147.08 187.491,147.08 	"/>
	<polygon style="fill:#554432;" points="160.677,79.43 160.677,64.067 145.004,64.067 145.004,79.43 152.84,79.43 	"/>
	<polygon style="fill:#554432;" points="308.812,389.961 316.649,389.961 324.486,389.961 324.486,374.599 308.812,374.599 	"/>
	<polygon style="fill:#554432;" points="373.806,204.648 373.806,220.011 389.479,220.011 389.479,204.648 381.643,204.648 	"/>
	<rect x="423.309" y="358.097" style="fill:#554432;" width="15.673" height="15.362"/>
</g>
<g>
</g>
<g>
</g>
<g>
</g>
<g>
</g>
<g>
</g>
<g>
</g>
<g>
</g>
<g>
</g>
<g>
</g>
<g>
</g>
<g>
</g>
<g>
</g>
<g>
</g>
<g>
</g>
<g>
</g>
</svg>
